<svg width="859" height="800" viewBox="0 0 859 800" fill="none" xmlns="http://www.w3.org/2000/svg">
<path d="M293 552.141C244.848 513.661 214 454.433 214 388C214 272.02 308.02 178 424 178C539.98 178 634 272.02 634 388C634 442.512 613.23 492.173 579.172 529.5" stroke="#EAEEFF" stroke-width="2"/>
<path d="M194 388C194 437.556 209.673 483.451 236.331 521C278.007 579.699 346.531 618 424 618C485 618 540.453 594.253 581.62 555.5C626.179 513.554 654 454.026 654 388C654 325.185 628.819 268.251 588 226.742C546.275 184.312 488.21 158 424 158" stroke="#BFCDFF" stroke-width="2"/>
<path d="M684 388C684 319.132 657.225 256.518 613.516 210C566.09 159.525 498.726 128 424 128C338.713 128 263.018 169.065 215.606 232.5C183.193 275.868 164 329.693 164 388C164 436.185 177.108 481.309 199.952 520C223.898 560.556 258.541 594.044 300 616.582C336.856 636.618 379.099 648 424 648" stroke="#557AFE" stroke-width="2"/>
<path d="M282.664 94.3358C204.88 131.772 148.713 196.051 119.932 270.706C88.7023 351.712 89.7147 444.934 130.336 529.336C176.698 625.665 264.227 688.839 361.649 707.906C428.252 720.941 499.479 713.36 565.336 681.664C619.76 655.471 663.601 616.137 694.883 569.302C727.674 520.21 746.666 462.876 749.585 403.798C752.18 351.278 742.072 297.379 717.664 246.664" stroke="#557AFE"/>
<circle cx="292" cy="551.999" r="24.5" fill="white" stroke="#BFCDFF"/>
<circle cx="423.999" cy="645.999" r="24.5" fill="white" stroke="#557AFE"/>
<path d="M702.522 220.204C717.933 212.787 736.32 219.056 743.6 234.182C750.879 249.308 744.308 267.589 728.898 275.006C713.487 282.423 695.1 276.154 687.82 261.028C680.54 245.902 687.112 227.62 702.522 220.204Z" fill="white" stroke="#557AFE"/>
<circle cx="423.999" cy="158" r="24.5" fill="white" stroke="#AABDFF"/>
</svg>
